# xmcd
#
# Track frame offsets:
# 150
# 14300
# 28263
# 40986
# 54705
# 70918
# 90189
# 104946
# 122556
# 138593
# 151532
# 165216
# 185483
# 200696
# 215683
# 230795
# 246781
# 259658
# 279100
# 292200
#
# Disc length: 4061 seconds
#
#
# Revision: 0
# Processed by: cddbd v1.5.2PL0 Copyright (c) Steve Scherf et al.
# Submitted via: FreeRIP 2.943 
#
DISCID=260fdb14
DTITLE=Cristiano Neves - Seleção De Ouro
DYEAR=2006
DGENRE=Brega
TTITLE0=Quanto Tempo Faz
TTITLE1=Cigana
TTITLE2=Fechado Para O Amor
TTITLE3=Carta No Quintal
TTITLE4=Cicatriz
TTITLE5=Cidade Grande
TTITLE6=O Cara Quem É
TTITLE7=Chuva De Saudades
TTITLE8=É Esse Amor Que Me Faz Viver
TTITLE9=Estou Voltando
TTITLE10=Coisas Do Coração
TTITLE11=Amigo Do Peito
TTITLE12=A Vez Do Amor
TTITLE13=Coração Bandido
TTITLE14=Ela Nasceu Pra Mim
TTITLE15=Pra Que Chorar
TTITLE16=Bem Que Eu Falei
TTITLE17=Os Caminhos Do Amor
TTITLE18=Garçonete
TTITLE19=Grito De Guerra
EXTD=
EXTT0=
EXTT1=
EXTT2=
EXTT3=
EXTT4=
EXTT5=
EXTT6=
EXTT7=
EXTT8=
EXTT9=
EXTT10=
EXTT11=
EXTT12=
EXTT13=
EXTT14=
EXTT15=
EXTT16=
EXTT17=
EXTT18=
EXTT19=
PLAYORDER=
